<?xml version="1.0" encoding="utf-8"?>
<!-- Generator: Adobe Illustrator 15.1.0, SVG Export Plug-In . SVG Version: 6.00 Build 0)  -->
<!DOCTYPE svg PUBLIC "-//W3C//DTD SVG 1.1//EN" "http://www.w3.org/Graphics/SVG/1.1/DTD/svg11.dtd">
<svg version="1.1" xmlns="http://www.w3.org/2000/svg" xmlns:xlink="http://www.w3.org/1999/xlink" x="0px" y="0px" width="32px"
	 height="32px" viewBox="0 0 32 32" enable-background="new 0 0 32 32" xml:space="preserve">
<g id="レイヤー_1">
</g>
<g id="参考">
	<rect x="7.729" y="28.305" fill="#FFFFFF" width="16.329" height="3.695"/>
	<rect fill="none" width="32" height="32"/>
	<path fill="#54C2F0" d="M23.92,21.954h-7.918H8.079L4.702,32h3.028c0.287-0.565,0.608-1.11,1.07-1.573
		c1.53-1.528,5.856-0.764,7.202-0.764c1.339,0,5.668-0.765,7.198,0.764c0.462,0.463,0.785,1.008,1.07,1.573h3.03L23.92,21.954z"/>
	<polygon fill="#E85F9D" points="15.584,32 16.42,32 23.92,24.496 8.079,24.496 	"/>
	<path fill="#FFFFFF" d="M28.241,16.814c0,7.662-5.481,9.459-12.239,9.459c-6.762,0-12.24-1.797-12.24-9.459
		c0-6.768,5.479-13.059,12.24-13.059C22.76,3.756,28.241,10.047,28.241,16.814z"/>
	<path fill="#54C2F0" d="M16.002,3.756c-6.762,0-12.24,6.291-12.24,13.059c0,0.022,0.005,0.037,0.005,0.06
		c1.091-0.712,2.466-0.979,3.958-0.657c-1.573-3.645,3.219-6.306,5.675-3.021c-0.667-2.453-0.002-4.856,2.602-4.856
		c2.603,0,3.268,2.403,2.596,4.856c2.46-3.284,7.248-0.623,5.675,3.021c1.494-0.321,2.872-0.053,3.962,0.657
		c0-0.022,0.006-0.037,0.006-0.06C28.241,10.047,22.76,3.756,16.002,3.756z"/>
	<path fill="#00A440" d="M28.241,16.814h-0.809c-0.025,3.649-1.239,5.646-3.212,6.92c-1.985,1.271-4.911,1.736-8.219,1.73
		c-3.313,0.006-6.234-0.46-8.223-1.73c-1.973-1.273-3.189-3.271-3.212-6.92c0-3.156,1.289-6.241,3.374-8.521
		c2.085-2.278,4.936-3.732,8.061-3.732c3.121,0,5.97,1.454,8.057,3.732c2.085,2.279,3.374,5.364,3.374,8.521H28.241h0.809
		c-0.013-7.178-5.763-13.84-13.048-13.87C8.713,2.975,2.963,9.637,2.95,16.814c-0.022,4.01,1.501,6.751,3.961,8.285
		c2.441,1.545,5.64,1.979,9.09,1.979c3.445,0,6.646-0.435,9.087-1.979c2.458-1.534,3.983-4.275,3.961-8.285H28.241z"/>
	<path fill="#54C2F0" d="M10.977,7.657c0.346-0.85,0.352-1.93-0.082-2.977C9.786,2.015,6.344,0.954,6.344,0.954
		S4.665,4.144,5.769,6.808c0.437,1.052,1.205,1.805,2.048,2.159"/>
	<path fill="#00A440" d="M11.726,7.959c0.206-0.507,0.309-1.063,0.309-1.645c0-0.637-0.129-1.296-0.393-1.941
		c-1.365-3.132-5.001-4.14-5.061-4.189c-0.371-0.116-0.774,0.05-0.956,0.394C5.603,0.633,4.59,2.507,4.58,4.791
		c0,0.742,0.112,1.551,0.443,2.338c0.512,1.224,1.42,2.14,2.479,2.589c0.413,0.169,0.886-0.02,1.062-0.43
		c0.175-0.412-0.019-0.886-0.43-1.063c-0.631-0.26-1.259-0.86-1.617-1.728C6.287,5.96,6.2,5.379,6.2,4.791
		C6.197,3.899,6.416,3.02,6.633,2.371l0.3-0.775l0.125-0.263L6.344,0.954L6.103,1.729l0.119,0.042
		c0.607,0.186,3.17,1.305,3.923,3.221c0.184,0.451,0.271,0.908,0.271,1.323c0,0.388-0.072,0.736-0.191,1.035
		c-0.167,0.421,0.032,0.89,0.447,1.059c0.415,0.166,0.886-0.033,1.055-0.449H11.726z"/>
	<path fill="#54C2F0" d="M20.568,7.657c-0.344-0.85-0.346-1.93,0.084-2.977c1.112-2.666,4.553-3.727,4.553-3.727
		s1.68,3.189,0.575,5.854c-0.436,1.052-1.207,1.805-2.053,2.159"/>
	<path fill="#00A440" d="M21.317,7.35c-0.122-0.299-0.19-0.647-0.19-1.029c0-0.421,0.081-0.878,0.271-1.324
		c0.446-1.091,1.441-1.938,2.359-2.48c0.459-0.277,0.89-0.477,1.202-0.609l0.365-0.136l0.119-0.042l-0.238-0.774l-0.717,0.379
		l0.125,0.263c0.244,0.543,0.734,1.861,0.731,3.195c0,0.588-0.091,1.169-0.313,1.712c-0.356,0.855-0.993,1.462-1.62,1.722
		C23,8.402,22.806,8.876,22.981,9.288c0.174,0.41,0.649,0.599,1.061,0.43c1.059-0.449,1.97-1.365,2.482-2.598
		c0.324-0.778,0.44-1.578,0.44-2.329c-0.01-2.275-1.022-4.15-1.043-4.214c-0.184-0.344-0.584-0.51-0.955-0.394
		c-0.06,0.05-3.697,1.058-5.063,4.185c-0.271,0.65-0.397,1.314-0.397,1.952c0,0.575,0.106,1.138,0.313,1.645
		c0.169,0.41,0.642,0.609,1.055,0.443c0.416-0.169,0.615-0.643,0.446-1.059H21.317z"/>
	<circle fill="#00A440" cx="12.112" cy="16.854" r="1.299"/>
	<circle fill="#00A440" cx="19.887" cy="16.854" r="1.299"/>
	<ellipse fill="#00A440" cx="16.001" cy="20.475" rx="1.601" ry="0.931"/>
	<g>
		<path fill="#00A440" d="M28.105,31.859l-2.427-7.221v-0.029c-0.204,0.155-0.371,0.354-0.589,0.49
			c-0.32,0.202-0.686,0.338-1.03,0.504V32h1.62v-2.279L26.444,32h1.905C28.262,31.958,28.197,31.897,28.105,31.859z"/>
		<path fill="#00A440" d="M5.556,32l0.395-1.175V32h1.62v-5.997l0.168-0.499c-0.273-0.139-0.571-0.242-0.827-0.404
			c-0.356-0.222-0.646-0.525-0.961-0.798v1.44l-2.056,6.116c-0.093,0.039-0.159,0.1-0.246,0.142H5.556z"/>
	</g>
	<path fill="#00A440" d="M15.998,31.274l-4.559-4.558c-1.187-0.208-2.283-0.553-3.299-1.017l6.297,6.3h3.127l6.296-6.3
		c-1.018,0.464-2.115,0.809-3.303,1.018L15.998,31.274z"/>
</g>
</svg>
