<?xml version="1.0" encoding="utf-8"?>
<!-- Generator: Adobe Illustrator 15.1.0, SVG Export Plug-In . SVG Version: 6.00 Build 0)  -->
<!DOCTYPE svg PUBLIC "-//W3C//DTD SVG 1.1//EN" "http://www.w3.org/Graphics/SVG/1.1/DTD/svg11.dtd">
<svg version="1.1" xmlns="http://www.w3.org/2000/svg" xmlns:xlink="http://www.w3.org/1999/xlink" x="0px" y="0px" width="200px"
	 height="60.448px" viewBox="0 0 200 60.448" enable-background="new 0 0 200 60.448" xml:space="preserve">
<g id="レイヤー_1">
</g>
<g id="PC版クーポンとは">
</g>
<g id="PC版">
	<g id="バナー">
	</g>
</g>
<g id="PC版加盟店トップ">
	<g id="新ロゴのコピー">
		<g>
			<g>
				<g>
					<path fill="#00A440" d="M22.35,22.356C11.374,33.333,3.927,46.498,0,60.44v0.008l32.57-32.572L16.591,39.025
						c2.79-4.427,6.11-8.61,9.966-12.46c6.693-6.699,14.389-11.782,22.598-15.275c-4.297,10.302-10.653,19.941-19.049,28.3
						c-4.132,4.111-8.575,7.724-13.236,10.845c10.574-4.017,20.266-10.68,28.021-19.978C52.44,21.405,57.39,10.845,60.438,0
						C46.49,3.931,33.319,11.384,22.35,22.356"/>
					<polygon fill="#231815" points="16.624,58.018 15.871,58.018 16.128,56.782 13.115,56.782 12.852,58.018 12.092,58.018 
						12.711,55.104 13.472,55.104 13.203,56.335 16.228,56.335 16.487,55.104 17.248,55.104 17.248,55.116 					"/>
					<polygon fill="#231815" points="18.894,58.018 18.139,58.018 18.139,58.002 18.757,55.104 19.518,55.104 19.518,55.116 					
						"/>
					<path fill="#231815" d="M30.196,58.018h-3.36c-0.157,0-0.286-0.055-0.37-0.165c-0.1-0.121-0.129-0.263-0.1-0.423l0.376-1.741
						c0.066-0.325,0.382-0.584,0.711-0.584h3.358c0.147,0,0.282,0.051,0.376,0.167c0.083,0.108,0.124,0.265,0.083,0.423
						l-0.369,1.743C30.833,57.757,30.513,58.018,30.196,58.018 M27.157,57.57h2.901l0.425-2.021h-2.897L27.157,57.57z"/>
					<path fill="#231815" d="M36.212,58.018h-3.36c-0.155,0-0.292-0.055-0.375-0.165c-0.1-0.121-0.122-0.263-0.084-0.423l0.36-1.741
						c0.061-0.325,0.388-0.584,0.718-0.584h3.348c0.161,0,0.29,0.051,0.382,0.167c0.088,0.108,0.118,0.265,0.088,0.423l-0.055,0.253
						h-0.756l0.082-0.398h-3.019l-0.425,2.021h3.017l0.165-0.788h-1.521l0.094-0.447h2.28l-0.233,1.102
						C36.849,57.757,36.536,58.018,36.212,58.018"/>
					<path fill="#231815" d="M47.261,58.018h-3.358c-0.153,0-0.288-0.055-0.378-0.165c-0.094-0.111-0.124-0.263-0.094-0.423
						l0.055-0.247h0.756l-0.08,0.388h3.021l0.165-0.788h-3.18c-0.161,0-0.296-0.055-0.382-0.161
						c-0.094-0.122-0.122-0.272-0.094-0.427l0.11-0.506c0.071-0.325,0.39-0.584,0.711-0.584h3.356c0.159,0,0.29,0.051,0.382,0.167
						c0.096,0.108,0.125,0.265,0.088,0.423l-0.053,0.253h-0.755l0.083-0.398h-3.021l-0.172,0.786h3.184
						c0.161,0,0.292,0.055,0.382,0.165c0.1,0.122,0.125,0.269,0.09,0.429l-0.107,0.508C47.898,57.757,47.577,58.018,47.261,58.018"
						/>
					<path fill="#231815" d="M42.474,58.018h-0.761l-0.265-0.592h-2.486l-0.52,0.592h-0.774l0.028-0.026l2.621-2.887h0.743
						l0.012,0.008L42.474,58.018z M39.372,56.965h1.869l-0.635-1.416L39.372,56.965z"/>
					<path fill="#231815" d="M24.969,58.018h-0.761v-0.004l-0.543-1.231h-2.338l-0.261,1.235H20.31l0.004-0.016l0.616-2.897h3.94
						c0.153,0,0.294,0.051,0.384,0.167c0.092,0.108,0.118,0.265,0.092,0.423l-0.114,0.504c-0.066,0.321-0.394,0.584-0.711,0.584
						h-0.139L24.969,58.018z M21.421,56.335h3.021l0.173-0.786h-3.029L21.421,56.335z"/>
					<path fill="#231815" d="M199.88,54.273c-1.477-1.057-2.868-2.239-4.174-3.541c-2.47-2.468-4.495-5.253-6.062-8.257
						c2.399-3.65,4.188-7.736,5.182-12.121c0.004-0.039,0.01-0.063,0.01-0.094c0-0.223-0.181-0.392-0.396-0.392h-23.311
						c-0.22,0-0.397,0.169-0.397,0.392v2.519c0,0.216,0.178,0.398,0.397,0.398h19.449c-1.629,4.736-4.331,9.075-7.977,12.731
						c-3.568,3.562-7.795,6.218-12.405,7.871c-0.157,0.051-0.277,0.196-0.277,0.368v2.667c0,0.227,0.177,0.392,0.389,0.392
						c0.049,0,0.086-0.01,0.121-0.014c6.77-2.229,12.664-6.365,17.062-11.784c2.921,5.076,7.021,9.384,11.919,12.554
						c0.063,0.04,0.13,0.055,0.2,0.055c0.214,0,0.39-0.175,0.39-0.392v-3.058C200,54.45,199.953,54.344,199.88,54.273"/>
					<path fill="#231815" d="M98.143,30.668H85.498v-2.409c0-0.222-0.172-0.392-0.398-0.392h-2.399c-0.214,0-0.398,0.17-0.398,0.392
						v2.409H69.66c-0.214,0-0.384,0.171-0.384,0.392v0.308v12.236c0,4.732-0.908,9.289-2.648,13.602
						c-0.043,0.082-0.07,0.163-0.108,0.239c-0.023,0.059-0.047,0.116-0.047,0.181c0,0.217,0.176,0.392,0.396,0.392h2.598
						c0.163,0,0.302-0.094,0.362-0.245c0.075-0.183,0.145-0.369,0.22-0.566l0,0c1.553-4.207,2.358-8.618,2.409-13.168l0,0V33.862
						h25.685c0.224,0,0.394-0.177,0.394-0.388V31.06C98.537,30.839,98.366,30.668,98.143,30.668"/>
					<path fill="#231815" d="M92.965,41.564c-0.069-0.206-0.294-0.378-0.518-0.378h-2.557c-0.215,0-0.339,0.172-0.274,0.378
						l3.862,12.452H76.755l5.534-17.845c0.063-0.212-0.051-0.38-0.282-0.38h-2.551c-0.211,0-0.451,0.168-0.51,0.38l-6.412,20.663
						c-0.077,0.208,0.057,0.373,0.271,0.373h1.931h0.633h19.5h0.133h0.796h1.631c0.213,0,0.345-0.165,0.271-0.373L92.965,41.564z"/>
					<path fill="#231815" d="M132.443,45.646c0.224,0,0.398-0.176,0.398-0.392v-2.021c0-0.218-0.175-0.394-0.398-0.394h-25.14
						v-1.521h22.817c0.221,0,0.397-0.176,0.397-0.39V30.26c0-0.223-0.177-0.392-0.397-0.392h-11.578V28.29
						c0-0.233-0.188-0.423-0.422-0.423h-2.351c-0.233,0-0.417,0.19-0.417,0.423v1.578h-8.449h-1.314h-0.706
						c-0.21,0-0.392,0.169-0.392,0.392v19.316c0,0.211,0.182,0.392,0.392,0.392h1.453h0.566h3.433v4.43h-5.844v-2.878
						c0-0.215-0.18-0.39-0.396-0.39h-2.017c-0.206,0-0.39,0.175-0.39,0.39v3.282v2.012c0,0.221,0.184,0.392,0.39,0.392h2.017h15.293
						h2.025c0.211,0,0.392-0.171,0.392-0.392v-2.012v-3.282c0-0.215-0.181-0.39-0.392-0.39h-2.025c-0.214,0-0.388,0.175-0.388,0.39
						v2.878h-5.856v-4.43h16.595l-0.399,3.433l0,0l-0.112,0.943h-0.008c0,0.478-0.386,0.868-0.868,0.868l0,0h-4.491
						c-0.259,0-0.465,0.212-0.465,0.477v1.856c0,0.257,0.206,0.473,0.465,0.473h4.491c0.843,0,1.496-0.286,1.931-0.559
						c0.941-0.578,1.6-1.568,1.72-2.711l0.156-1.347h0.002l0.681-5.846c0-0.221-0.177-0.386-0.398-0.386h-25.14v-1.523H132.443z
						 M107.303,36.986h20.407v1.527h-20.407V36.986z M107.303,32.67h20.407v1.515h-20.407V32.67z"/>
					<path fill="#231815" d="M164.165,27.867h-2.407c-0.222,0-0.398,0.17-0.398,0.392v2.721c0,0.221,0.177,0.394,0.398,0.394h2.407
						c0.222,0,0.39-0.173,0.39-0.394v-2.721C164.554,28.037,164.386,27.867,164.165,27.867"/>
					<path fill="#231815" d="M156.535,31.374h2.407c0.212,0,0.394-0.173,0.394-0.394v-2.721c0-0.222-0.182-0.392-0.394-0.392h-2.407
						c-0.212,0-0.395,0.17-0.395,0.392v2.721C156.14,31.201,156.323,31.374,156.535,31.374"/>
					<path fill="#231815" d="M164.165,32.26h-14.791v-4.001c0-0.222-0.179-0.392-0.4-0.392h-2.403c-0.228,0-0.398,0.17-0.398,0.392
						v4.001h-8.868c-0.21,0-0.393,0.177-0.393,0.394v2.414c0,0.213,0.183,0.388,0.393,0.388h8.868v1.405
						c0,7.253-3.591,13.654-9.088,17.559c-0.105,0.065-0.173,0.187-0.173,0.318v2.888c0,0.217,0.183,0.392,0.393,0.392
						c0.076,0,0.15-0.026,0.21-0.055c7.114-4.34,11.86-12.166,11.86-21.102v-1.405h11.985v0.312v16.647
						c0,0.892-0.72,1.602-1.592,1.602h-8.85c-0.209,0-0.392,0.177-0.392,0.388v2.41c0,0.221,0.183,0.392,0.392,0.392h8.85
						c2.65,0,4.787-2.141,4.787-4.792V35.067v-1.206v-1.208C164.554,32.437,164.386,32.26,164.165,32.26"/>
				</g>
			</g>
			<g>
				<g>
					<path fill="#231815" d="M73.458,15.04l-0.047-0.272c-0.016-0.1-0.078-0.185-0.168-0.229c-0.057-0.027-0.092-0.068-0.153-0.147
						c-0.037-0.049-0.077-0.096-0.12-0.141c-0.016-0.016-0.033-0.027-0.051-0.039l-0.251-0.165l-0.157-0.141
						c-0.02-0.016-0.043-0.031-0.067-0.043l-0.378-0.19l-0.48-0.194l-0.535-0.194c-0.01-0.004-0.03-0.01-0.042-0.012
						c-0.061-0.016-0.421-0.121-0.421-0.121c-0.029-0.01-0.059-0.014-0.088-0.014h-0.427c-0.021,0-0.043,0.002-0.063,0.008
						l-0.335,0.066c-0.061,0.012-0.122,0.049-0.165,0.092c-0.018,0.018-0.055,0.051-0.088,0.08
						c-0.039,0.036-0.074,0.067-0.084,0.079c-0.081,0.079-0.108,0.196-0.077,0.306c0.031,0.102,0.077,0.169,0.122,0.239l0.035,0.051
						c0.051,0.077,0.112,0.125,0.204,0.133c0.068,0.016,0.425,0.116,0.425,0.116l0.306,0.1c0.014,0.004,0.029,0.008,0.045,0.012
						l0.241,0.04l0.235,0.086l0.263,0.137l0.637,0.4l0.263,0.21l0.18,0.18c0.051,0.051,0.116,0.083,0.187,0.09l0.261,0.027
						c0.01,0.002,0.021,0.002,0.031,0.002c0.014,0,0.025-0.002,0.037-0.002l0.243-0.029c0.065-0.008,0.135-0.047,0.187-0.096
						l0.165-0.116C73.426,15.279,73.477,15.16,73.458,15.04z"/>
					<path fill="#231815" d="M73.293,18.155c-0.024-0.086-0.084-0.159-0.165-0.2l-0.233-0.112c-0.049-0.023-0.102-0.033-0.157-0.029
						c-0.194,0.012-0.462,0.039-0.594,0.055l-0.557-0.027l-0.902-0.333c-0.038-0.014-0.079-0.02-0.118-0.02l-0.222,0.008
						c-0.023,0-0.047,0.004-0.07,0.012l-0.149,0.039c-0.047,0.012-0.086,0.021-0.125,0.027c-0.131,0.018-0.237,0.118-0.263,0.249
						l-0.045,0.243c-0.023,0.124,0.03,0.249,0.135,0.317c0.079,0.051,0.145,0.104,0.212,0.155c0.053,0.042,0.104,0.081,0.157,0.118
						c0.029,0.02,0.063,0.034,0.096,0.042l0.345,0.086l0.316,0.1c0.01,0.004,0.021,0.006,0.031,0.008l0.639,0.139
						c0.09,0.018,0.18,0.025,0.271,0.025c0.604,0,1.178-0.354,1.302-0.435c0.112-0.075,0.165-0.212,0.129-0.341L73.293,18.155z"/>
				</g>
				<path fill="#231815" d="M84.371,15.697l-0.098-0.212l-0.177-0.31c-0.006-0.01-0.012-0.02-0.02-0.029l-0.165-0.214
					c-0.063-0.07-0.386-0.437-0.572-0.557l-0.251-0.185c-0.025-0.018-0.055-0.031-0.086-0.039c-0.102-0.027-0.206-0.082-0.349-0.161
					c-0.01-0.004-0.02-0.008-0.032-0.012l-0.437-0.163l-0.523-0.145c-0.018-0.006-0.037-0.008-0.055-0.01
					c0,0-0.38-0.016-0.432-0.018c-0.02-0.002-0.039-0.002-0.059,0.002l-0.739,0.114c-0.039,0.006-0.076,0.021-0.108,0.045
					l-0.335,0.245l-0.333,0.216c-0.014,0.008-0.027,0.02-0.037,0.031l-0.439,0.426l-0.2,0.209c-0.012,0.012-0.021,0.023-0.029,0.039
					l-0.229,0.363l-0.3,0.57l-0.206,0.461c-0.01,0.02-0.016,0.041-0.02,0.063l-0.061,0.39c-0.002,0.012-0.002,0.026-0.002,0.026
					l-0.002,0.49c0,0.053,0.018,0.104,0.047,0.147l0.324,0.445c0.021,0.027,0.047,0.053,0.078,0.068l0.271,0.157
					c0.023,0.012,0.047,0.021,0.073,0.027l0.363,0.082c0.012,0.002,0.023,0.004,0.035,0.004l0.458,0.038
					c0.014,0.002,0.028,0.002,0.04,0l0.104-0.008c0.032-0.002,0.061-0.012,0.088-0.026l0.355-0.172
					c0.012-0.006,0.021-0.012,0.033-0.02l0.396-0.251c0.027-0.018,0.051-0.039,0.071-0.064l0.168-0.22
					c0.018-0.023,0.031-0.051,0.039-0.079c0.014-0.047,0.106-0.198,0.196-0.323c0.016-0.023,0.029-0.049,0.037-0.075l0.076-0.257
					l0.177-0.335c0.01-0.02,0.018-0.043,0.023-0.067l0.064-0.319c0.133-0.376,0.306-0.882,0.116-1.315
					c0.102,0.01,0.183,0.018,0.194,0.02l0.404,0.163c0.159,0.053,0.271,0.151,0.388,0.255c0.033,0.029,0.064,0.057,0.096,0.083
					c0.07,0.057,0.153,0.129,0.243,0.226c0.096,0.165,0.206,0.364,0.226,0.419c0.09,0.245,0.194,0.525,0.127,0.87l-0.047,0.467
					c-0.004,0.023-0.008,0.055-0.014,0.09c-0.008,0.055-0.024,0.168-0.042,0.208c-0.064,0.153-0.114,0.33-0.133,0.479
					c-0.006,0.047,0.002,0.092,0.02,0.133l0.104,0.227c0.027,0.063,0.081,0.11,0.143,0.131c0.036,0.028,0.104,0.075,0.2,0.075
					c0.161,0,0.313-0.018,0.48-0.055c0.075-0.018,0.14-0.069,0.171-0.139l0.174-0.378c0.012-0.026,0.02-0.053,0.021-0.081
					l0.088-0.802l0.023-0.419C84.579,16.318,84.469,15.9,84.371,15.697z M79.188,16.971c0.01-0.02,0.016-0.04,0.02-0.059l0.09-0.451
					l0.141-0.274c0.172-0.257,0.243-0.392,0.272-0.467l0.376-0.464l0.02-0.016c0.071-0.051,0.108-0.078,0.198-0.151
					c0.031-0.025,0.061-0.053,0.092-0.08c0.084-0.079,0.165-0.151,0.291-0.192l0.006-0.002l-0.149,1.129l-0.079,0.237l-0.533,0.974
					l-0.249,0.288c-0.081,0.006-0.18,0.01-0.21,0.01c-0.145,0-0.167-0.012-0.196-0.029c-0.01-0.008-0.023-0.02-0.041-0.029
					l-0.094-0.188C79.143,17.114,79.148,17.055,79.188,16.971z"/>
				<path fill="#231815" d="M94.373,18.555c-0.016-0.055-0.043-0.096-0.07-0.135c-0.025-0.057-0.067-0.104-0.12-0.136
					c0.002,0,0,0-0.006-0.008c-0.037-0.039-0.092-0.1-0.176-0.133c-0.057-0.023-0.11-0.047-0.159-0.068
					c-0.165-0.075-0.333-0.151-0.584-0.182l-0.081-0.022l0.042-0.265c0.027-0.317-0.012-0.858-0.014-0.878l-0.026-0.373l0.382-0.124
					c0.043-0.014,0.083-0.037,0.114-0.071c0.077-0.074,0.102-0.141,0.122-0.202c0.004-0.014,0.008-0.027,0.018-0.049
					c0.023-0.049,0.031-0.104,0.023-0.159l-0.018-0.129c-0.021-0.153-0.159-0.263-0.312-0.247l-0.451,0.042
					c-0.072-0.272-0.133-0.586-0.194-0.892l-0.053-0.263c-0.014-0.075-0.043-0.349-0.063-0.529l0.19-0.01
					c0.018-0.002,0.036-0.004,0.051-0.008l0.141-0.031c0.092-0.022,0.17-0.032,0.245-0.04c0.231-0.025,0.412-0.217,0.476-0.337
					c0.045-0.084,0.051-0.204,0.008-0.288c-0.008-0.016-0.02-0.034-0.031-0.049l-0.12-0.151c-0.049-0.061-0.122-0.1-0.202-0.106
					l-0.28-0.023c-0.012-0.002-0.024-0.002-0.034,0l-0.611,0.021l-0.131-0.319c-0.018-0.047-0.049-0.088-0.088-0.118l-0.184-0.145
					c-0.025-0.02-0.053-0.035-0.084-0.045l-0.184-0.065c-0.051-0.016-0.106-0.02-0.157-0.008c-0.055,0.012-0.1,0.029-0.174,0.063
					c-0.1,0.049-0.133,0.129-0.165,0.2l-0.01,0.025c-0.021,0.039-0.033,0.083-0.035,0.127c-0.002,0.033-0.002,0.049,0,0.047
					c-0.018,0.049-0.024,0.127-0.014,0.179l0.061,0.312l-0.315,0.031l-0.824,0.185l-0.257,0.043l-0.237,0.057
					c-0.014,0.004-0.028,0.008-0.042,0.014c-0.068,0.029-0.196,0.078-0.251,0.094c-0.178,0.047-0.265,0.098-0.347,0.283
					c-0.04,0.094-0.034,0.2,0.025,0.282c0.02,0.039,0.047,0.088,0.059,0.105c0.045,0.065,0.112,0.108,0.188,0.122l0.229,0.043
					c0.047,0.008,0.096,0.004,0.142-0.01l0.531-0.124c0.018-0.004,0.035-0.01,0.051-0.018l1.235-0.183
					c0,0.008,0.002,0.016,0.004,0.023c0.096,0.345,0.208,1.357,0.224,1.668l-0.335,0.025l-1.042,0.004
					c-0.049,0-0.098,0.012-0.141,0.037l-0.171,0.096c-0.108,0.061-0.165,0.185-0.143,0.306c0.004,0.016,0.016,0.063,0.025,0.104
					l0.012,0.043c0.02,0.082,0.073,0.151,0.147,0.19l0.227,0.12c0.031,0.016,0.065,0.025,0.1,0.029l0.157,0.021
					c0.023,0.002,0.045,0.002,0.067,0l0.478-0.053l0.78-0.029c-0.002,0.068,0,0.184,0.002,0.296
					c0.002,0.086,0.004,0.168,0.004,0.224l0.002,0.129c0,0.192,0.002,0.331-0.029,0.46c-0.012,0.031-0.023,0.071-0.033,0.112
					c-0.004,0.012-0.008,0.025-0.012,0.039l-0.214-0.021c-0.021-0.002-0.041-0.002-0.063,0.002l-0.563,0.065
					c-0.02,0.002-0.039,0.006-0.059,0.014l-0.659,0.219c-0.02,0.006-0.037,0.014-0.055,0.024l-0.255,0.149
					c-0.094,0.055-0.326,0.204-0.41,0.398l-0.018,0.041c-0.018,0.039-0.107,0.241-0.076,0.5c0.012,0.09,0.064,0.17,0.143,0.215
					c0.027,0.018,0.049,0.034,0.094,0.079c0.021,0.029,0.047,0.057,0.078,0.077l0.298,0.18c0.01,0.008,0.022,0.012,0.032,0.016
					l0.492,0.196c0.022,0.008,0.043,0.014,0.065,0.018l0.129,0.018c0.029,0.012,0.063,0.02,0.094,0.021
					c0.051,0.002,0.113,0.004,0.192,0.004c0.233,0,0.396-0.029,0.516-0.053c0.035-0.008,0.068-0.014,0.1-0.018
					c0.018-0.004,0.035-0.008,0.053-0.014l0.382-0.129c0.018-0.008,0.033-0.014,0.049-0.024l0.243-0.137
					c0.043-0.023,0.079-0.059,0.104-0.102l0.361-0.618c0.002-0.002,0.002-0.004,0.004-0.006l0.408,0.135
					c0.014,0.004,0.027,0.008,0.041,0.01l0.302,0.055c0.023,0.004,0.047,0.004,0.07,0.004l0.22-0.014
					c0.102-0.006,0.188-0.064,0.235-0.149l0.014-0.016C94.324,18.813,94.402,18.72,94.373,18.555z M91.61,19.039l-0.07,0.037
					c-0.016,0.01-0.029,0.022-0.043,0.034c-0.02,0.004-0.041,0-0.064-0.002c-0.031,0-0.064-0.002-0.102-0.002
					c-0.145,0-0.2-0.016-0.3-0.063c-0.018-0.01-0.043-0.025-0.071-0.043c-0.031-0.018-0.064-0.037-0.094-0.055l-0.059-0.073
					l0.059-0.037c0.124-0.02,0.237-0.053,0.354-0.088c0.169-0.051,0.341-0.102,0.537-0.102h0.006l-0.09,0.298L91.61,19.039z"/>
				<path fill="#231815" d="M105.464,17.294c-0.02-0.222-0.07-0.4-0.157-0.543c-0.018-0.031-0.039-0.063-0.066-0.104
					c-0.049-0.072-0.235-0.376-0.235-0.376c-0.014-0.023-0.033-0.045-0.059-0.059c-0.016-0.01-0.033-0.029-0.049-0.047
					c-0.004-0.004-0.02-0.02-0.043-0.041c-0.049-0.047-0.145-0.137-0.169-0.167c-0.018-0.029-0.047-0.055-0.076-0.071
					c-0.02-0.01-0.045-0.029-0.069-0.045c-0.041-0.031-0.074-0.055-0.109-0.067l-0.343-0.174l-0.186-0.068
					c-0.012-0.004-0.024-0.008-0.038-0.01c-0.029-0.006-0.127-0.03-0.153-0.036l-0.359-0.033l-0.4,0.004l-0.602,0.116l-0.821,0.331
					c-0.03,0.012-0.055,0.032-0.073,0.055v0.002l-0.002-0.002c0.002-0.039,0.023-0.125,0.039-0.202
					c0.014-0.061,0.025-0.12,0.03-0.155l0.066-0.267c0.006-0.023,0.01-0.023,0.004-0.049c0.002-0.049,0.035-0.198,0.037-0.212
					l0.028-0.209l0.172-0.761c0.006-0.014,0.012-0.029,0.014-0.045l0.535-0.137l0.178-0.045c0,0,0.249-0.039,0.32-0.043
					c0.045-0.002,0.423-0.079,0.455-0.086c0.053-0.014,0.1-0.023,0.127-0.029l0.335-0.035c0.149-0.016,0.315-0.032,0.429-0.071
					c0.124-0.043,0.165-0.12,0.192-0.233c0.018-0.082-0.016-0.165-0.057-0.247c-0.008-0.016-0.018-0.033-0.031-0.047l-0.12-0.129
					c-0.016-0.01-0.202-0.149-0.202-0.149c-0.027-0.02-0.057-0.031-0.09-0.035l-0.177-0.016c-0.018-0.004-0.033-0.002-0.049,0
					c-0.008,0.002-0.025,0.006-0.049,0.012c-0.034,0.008-0.084,0.023-0.116,0.027c-0.114,0.006-0.318,0.045-0.541,0.088
					c-0.135,0.025-0.267,0.053-0.392,0.072c0,0-0.375,0.102-0.41,0.114c-0.022,0.008-0.045,0.016-0.065,0.021
					c0.031-0.124,0.102-0.327,0.143-0.406c0.041-0.061,0.045-0.137,0.002-0.2c-0.002-0.034-0.02-0.073-0.037-0.1
					c-0.01-0.012-0.021-0.023-0.033-0.033l-0.125-0.106c-0.014-0.012-0.03-0.021-0.047-0.027l-0.066-0.028
					c-0.008-0.004-0.018-0.008-0.027-0.012l0.002-0.002c-0.289-0.137-0.369-0.161-0.43-0.161c-0.188,0-0.312,0.198-0.345,0.261
					c-0.016,0.025-0.021,0.057-0.021,0.086c-0.004,0.027,0.004,0.07,0.012,0.096c0.004,0.053-0.049,0.28-0.116,0.506
					c-0.004,0.021-0.01,0.059-0.014,0.104c-0.008,0.066-0.018,0.151-0.024,0.176c-0.02,0.051-0.041,0.102-0.039,0.149l-0.474,0.141
					c-0.008,0-0.014,0-0.022,0.004c0,0-0.28,0.07-0.388,0.088c-0.159,0.025-0.355,0.057-0.583,0.135c0,0-0.137,0.067-0.176,0.083
					c-0.061,0.016-0.237,0.114-0.304,0.245l-0.049,0.076c-0.018,0.026-0.027,0.055-0.029,0.084l-0.012,0.159
					c-0.008,0.086,0.047,0.165,0.129,0.188l0.228,0.066c0.018,0.004,0.035,0.008,0.051,0.008l0,0h0.068
					c0.036,0.008,0.075,0.008,0.112-0.006c0.042-0.014,0.233-0.064,0.235-0.064c0.031-0.008,0.168-0.034,0.306-0.059
					c0.079-0.014,0.308-0.084,0.369-0.104c0.071-0.029,0.168-0.012,0.231-0.029l0.027-0.008v0.012l-0.012,0.265l-0.071,0.226
					c-0.006,0.021-0.01,0.018-0.008,0.041c-0.004,0.045-0.043,0.212-0.047,0.228l-0.059,0.363l-0.002,0.006l-0.092,0.325
					l-0.051,0.351c-0.004,0.012-0.006,0.021-0.008,0.031l-0.033,0.208c-0.031,0.237-0.07,0.509-0.078,0.543
					c-0.012,0.037-0.094,0.315-0.1,0.343c-0.002,0.024-0.01,0.042-0.023,0.073c-0.018,0.041-0.042,0.092-0.049,0.159
					c-0.004,0.031,0,0.063,0.012,0.092c0.008,0.02,0.014,0.031,0.163,0.255c0.008,0.012,0.018,0.021,0.027,0.031
					c0.127,0.12,0.157,0.131,0.182,0.141c0.09,0.037,0.185,0.075,0.32,0.077c0.014,0,0.027-0.002,0.041-0.006l0.3-0.069
					c0.025-0.006,0.051-0.018,0.073-0.035c0.047-0.04,0.074-0.092,0.125-0.206l0.098-0.225l0.104-0.151
					c0.029-0.057,0.081-0.1,0.131-0.139c0.047-0.039,0.096-0.078,0.127-0.131l0.071-0.07c0,0,0.349-0.269,0.414-0.312
					c0.07-0.047,0.135-0.09,0.218-0.109c0.018-0.006,0.035-0.014,0.051-0.024l0.061-0.039l0.38-0.098l0.373-0.041l0.376,0.004
					c0.075,0.033,0.245,0.112,0.288,0.135c0.002,0,0.039,0.02,0.139,0.131c0,0,0.124,0.122,0.147,0.151
					c0.028,0.043,0.049,0.079,0.069,0.145l0.041,0.106c0,0.059-0.006,0.124-0.012,0.2c-0.006,0.063-0.012,0.125-0.012,0.182
					c-0.035,0.086-0.124,0.292-0.141,0.328c-0.023,0.041-0.047,0.086-0.063,0.155l-0.267,0.257
					c-0.039,0.031-0.211,0.141-0.261,0.172c-0.027,0.014-0.057,0.033-0.098,0.063c-0.03,0.022-0.063,0.045-0.083,0.055
					c-0.037,0.018-0.065,0.041-0.083,0.078c-0.012,0.018-0.064,0.073-0.107,0.116c-0.012,0.01-0.022,0.021-0.03,0.034
					c0,0-0.088,0.135-0.096,0.149c-0.038,0.035-0.057,0.086-0.055,0.139l0.012,0.245c0.002,0.061,0.036,0.116,0.086,0.147
					c0.027,0.018,0.061,0.055,0.09,0.102c0.012,0.02,0.027,0.037,0.045,0.051l0.114,0.088c0.021,0.016,0.045,0.027,0.07,0.033
					l0.153,0.033c0.012,0.004,0.025,0.006,0.037,0.006l0.267,0.002h0.002c0.016,0,0.033-0.002,0.051-0.008
					c0.067-0.02,0.116-0.035,0.153-0.047c0.03-0.01,0.067-0.04,0.088-0.063l0.206-0.219c0.018-0.02,0.02-0.016,0.027-0.042
					c0.027-0.041,0.172-0.192,0.219-0.225c0.012-0.008,0.022-0.016,0.032-0.026l0.333-0.37c0.025-0.028,0.038-0.051,0.042-0.09
					c0.008-0.027,0.063-0.149,0.109-0.251c0.047-0.061,0.088-0.161,0.122-0.29c0.014-0.039,0.028-0.079,0.043-0.114
					c0.074-0.151,0.107-0.498,0.116-0.6L105.464,17.294z"/>
				<g>
					<path fill="#00A440" d="M116.667,12.166c-0.173-0.257-0.587-0.52-0.982-0.616l-0.578-0.064l-0.632-0.033l-0.354,0.031
						l-0.306-0.008l-0.572,0.061h-0.257l0,0c-0.012,0-0.023,0-0.035,0.004l-0.595,0.118c-0.068,0.006-0.222,0.036-0.468,0.092
						l-0.271,0.104c-0.017,0.004-0.032,0.014-0.046,0.023c-0.031,0.018-0.109,0.057-0.178,0.09c-0.144,0.074-0.147,0.074-0.171,0.1
						c-0.072,0.071-0.212,0.229-0.212,0.229c-0.014,0.016-0.023,0.031-0.031,0.051c-0.061,0.145-0.088,0.276-0.084,0.425
						l0.047,0.427l-0.02,0.504l0.027,0.3l-0.012,0.296l0.07,0.726l0.021,0.404l0.173,0.927c0.006,0.033,0.027,0.07,0.053,0.096
						c0.041,0.043,0.094,0.078,0.144,0.107l0.041,0.03c0.023,0.016,0.051,0.027,0.08,0.031l0.228,0.033
						c0.01,0.002,0.018,0.002,0.025,0.002s0.014,0,0.02,0l0.357-0.039l0.259,0.002c0.01,0,0.023,0,0.035-0.002l0.755-0.141
						l0.392-0.059c0.092,0.004,0.253-0.014,0.463-0.047l0.362-0.002l0.228,0.014c0,0,0.21,0.016,0.272,0.023
						c0.064,0.006,0.125,0.014,0.187,0.014c0.004,0,0.253-0.002,0.321-0.02c0.135,0.023,0.233-0.033,0.292-0.167l0.041-0.067
						l0.061-0.016c0.006,0,0.015-0.002,0.021-0.004L116,16.246c0.035,0.023,0.08,0.035,0.122,0.029c0.023-0.002,0.076,0,0.076,0
						c0.029,0.002,0.049-0.004,0.072-0.014c0.021-0.008,0.057-0.025,0.124-0.084l0.053-0.047c0.023-0.021,0.043-0.051,0.053-0.08
						l0.072-0.228c0.002-0.012,0.006-0.023,0.006-0.023c0.029-0.253,0.067-0.527,0.071-0.553c0.008-0.021,0.012-0.043,0.01-0.066
						l-0.018-1c0.025-0.122,0.01-0.233-0.004-0.341l-0.011-0.079c-0.004-0.033,0.009-0.17,0.017-0.257l0.037-0.18
						c0.002-0.01,0.004-0.021,0.004-0.021l0.012-0.457c0.014-0.104,0.055-0.321,0.055-0.321
						C116.78,12.413,116.75,12.293,116.667,12.166z M115.583,14.642c0.012,0.155-0.008,0.373-0.024,0.549l-0.016,0.231l-0.768,0.078
						l-0.579-0.055l-0.023-0.455l0.033-0.588c0.106,0,0.41-0.018,0.41-0.018l0.521-0.01c0.121-0.002,0.188-0.033,0.245-0.057
						c0.027-0.014,0.049-0.021,0.068-0.025c0.049-0.008,0.094-0.035,0.121-0.076c0.009-0.012,0.019-0.028,0.028-0.045l-0.03,0.278
						C115.572,14.513,115.577,14.573,115.583,14.642z M113.129,15.544c-0.164,0.051-0.502,0.116-0.733,0.135
						c-0.135,0.012-0.272,0.025-0.409,0.086c-0.068-0.382-0.11-0.672-0.124-0.905l0.042-0.378l0.127,0.045
						c0.088,0.025,0.177,0.023,0.259,0.021h0.064c0.058,0,0.112-0.004,0.175-0.006c0.057-0.002,0.113-0.006,0.171-0.006
						c0.107,0,0.306-0.023,0.372-0.033l0.057,0.006v0.259l0.029,0.46l-0.031,0.289L113.129,15.544z M113.232,12.474l-0.071,0.31
						c-0.004,0.014-0.004,0.027-0.004,0.043l0.004,0.216l0.052,0.529c-0.2,0.07-0.318,0.053-0.49,0.09
						c-0.041,0.01-0.106,0.022-0.128,0.024c-0.08-0.008-0.16-0.014-0.237-0.014c-0.092,0-0.3,0.049-0.425,0.078l-0.006-0.018
						c-0.01-0.157-0.016-0.172-0.021-0.186c-0.01-0.036-0.018-0.124-0.018-0.124l-0.021-0.179l0.036-0.449
						c0.014-0.033,0.037-0.088,0.043-0.11l0.403-0.108l0.659-0.11c0,0,0.113-0.027,0.15-0.029c0.025,0,0.052-0.004,0.093-0.016
						C113.242,12.438,113.236,12.454,113.232,12.474z M115.588,13.585c-0.017-0.02-0.036-0.037-0.058-0.049
						c-0.188-0.102-0.195-0.105-0.278-0.105c-0.029-0.004-0.057-0.004-0.084-0.004c-0.035,0-0.068,0.002-0.1,0.008l-0.698,0.059
						l-0.155-0.018c-0.018-0.041-0.035-0.147-0.012-0.261c0.002-0.014,0.002-0.027,0.002-0.027c0-0.045,0.002-0.075,0.004-0.102
						c0.004-0.074,0.008-0.157-0.025-0.249l-0.012-0.116c-0.002-0.025-0.01-0.051-0.023-0.072c-0.02-0.033-0.031-0.067-0.043-0.098
						c-0.02-0.053-0.043-0.114-0.086-0.172l0.148-0.021l0.253-0.01l0.255-0.03l0.284,0.023l0.21-0.012l0.251,0.043l0.269,0.104
						l-0.037,0.204l-0.041,0.937L115.588,13.585z"/>
					<path fill="#00A440" d="M118.397,19.02c-0.02-0.033-0.078-0.194-0.127-0.339l-0.144-0.316l-0.364-0.649
						c-0.006-0.01-0.014-0.02-0.021-0.029l-0.298-0.292c-0.014-0.016-0.029-0.027-0.048-0.036l-0.109-0.096
						c-0.021-0.021-0.051-0.038-0.082-0.045c-0.116-0.031-0.171-0.021-0.243-0.016h-0.033c-0.062,0.004-0.114,0.038-0.146,0.09
						l-0.035,0.057c-0.02,0.034-0.027,0.071-0.023,0.108l0.043,0.432c0.004,0.035,0.018,0.068,0.041,0.096
						c0.014,0.018,0.025,0.051,0.041,0.092c0.02,0.051,0.042,0.106,0.075,0.165c0.02,0.033,0.039,0.067,0.061,0.1
						c0.031,0.047,0.063,0.096,0.086,0.147c0.061,0.124,0.159,0.365,0.21,0.492l0.029,0.076c0.07,0.177,0.07,0.177,0.092,0.31
						c0.006,0.035,0.024,0.07,0.05,0.096c0.014,0.018,0.031,0.047,0.049,0.077c0.051,0.083,0.074,0.122,0.111,0.149
						c0.051,0.037,0.101,0.075,0.161,0.102c0.023,0.01,0.049,0.014,0.072,0.014c0.006,0,0.01,0,0.014,0l0.325-0.025
						c0.063-0.004,0.118-0.039,0.147-0.096l0.08-0.153C118.537,19.292,118.517,19.196,118.397,19.02z"/>
					<path fill="#00A440" d="M114.661,18.543l0.027,0.036c0.018,0.021,0.043,0.053,0.047,0.061c0.023,0.043,0.062,0.077,0.108,0.09
						c0.066,0.021,0.119,0.029,0.16,0.031c0.025,0.014,0.067,0.033,0.118,0.033c0.006,0,0.014,0,0.02,0
						c0.035-0.004,0.072-0.008,0.111-0.008c0.021,0,0.089,0,0.22-0.066c0.059-0.01,0.11-0.051,0.134-0.106
						c0.076-0.176,0.084-0.308,0.092-0.458c0.004-0.071-0.029-0.136-0.063-0.202c-0.01-0.018-0.02-0.037-0.027-0.053
						c-0.002-0.036-0.016-0.071-0.038-0.098l-0.29-0.365l-0.259-0.261c-0.027-0.027-0.061-0.045-0.098-0.053l-0.202-0.034
						c-0.037-0.006-0.074-0.002-0.105,0.014c-0.02,0.008-0.045,0.021-0.07,0.035c-0.028,0.016-0.058,0.031-0.091,0.045
						c-0.049,0.021-0.088,0.063-0.104,0.114c-0.078,0.251-0.006,0.445,0.07,0.649l0.218,0.553
						C114.643,18.516,114.651,18.529,114.661,18.543z"/>
					<path fill="#00A440" d="M116.221,19.962l-0.004-0.035c-0.014-0.122-0.027-0.245-0.088-0.33l-0.036-0.113
						c-0.004-0.065-0.035-0.125-0.064-0.171c-0.043-0.063-0.113-0.141-0.212-0.149c-0.072-0.006-0.125,0.025-0.166,0.053
						c-0.059,0.006-0.112,0.041-0.142,0.094c-0.055,0.106-0.084,0.192-0.113,0.276c-0.037,0.104-0.072,0.202-0.149,0.33
						l-0.037,0.059l-0.177-0.01l-0.762-0.345l-0.391-0.353l-0.059-0.129l-0.226-0.363l-0.185-0.555
						c-0.021-0.178-0.051-0.31-0.086-0.392l-0.002-0.051c-0.002-0.012-0.002-0.024-0.006-0.036l-0.016-0.064
						c-0.008-0.029-0.021-0.055-0.043-0.079l-0.134-0.143c-0.016-0.018-0.035-0.031-0.057-0.041l-0.267-0.124
						c-0.012-0.004-0.025-0.008-0.039-0.012l-0.041-0.008c-0.037-0.008-0.079-0.004-0.116,0.014l-0.184,0.092
						c-0.028,0.012-0.065,0.057-0.083,0.082c-0.02,0.02-0.035,0.043-0.045,0.069c-0.037,0.104-0.035,0.198-0.033,0.272
						c0,0.029,0,0.059-0.002,0.09c-0.008,0.068,0.014,0.131,0.029,0.182c0.006,0.016,0.01,0.029,0.012,0.041
						c0.002,0.014,0.004,0.027,0.008,0.04l0.269,0.858c0.006,0.016,0.014,0.029,0.021,0.043l0.222,0.337l0.159,0.2l0.433,0.449
						l0.216,0.174l0.521,0.326c0.008,0.006,0.016,0.014,0.023,0.02c0.016,0.01,0.031,0.018,0.049,0.023l0.516,0.165
						c0.01,0.004,0.021,0.006,0.033,0.006l0.271,0.034c0.118,0.037,0.163,0.039,0.301,0.039l0.004-0.179l0,0v0.179
						c0.002,0,0.006,0,0.01,0l0.207-0.012c0.104,0,0.155-0.021,0.202-0.045c0.016-0.008,0.025-0.012,0.061-0.018
						c0.054-0.006,0.103-0.02,0.149-0.033c0.045-0.012,0.078-0.021,0.117-0.023c0.06-0.004,0.112-0.038,0.144-0.086
						c0.124-0.204,0.098-0.323,0.041-0.51L116.221,19.962z"/>
					<path fill="#00A440" d="M111.349,17.62c-0.008-0.045-0.031-0.084-0.064-0.113l-0.233-0.187
						c-0.031-0.025-0.068-0.039-0.107-0.041l-0.2-0.006c-0.023,0-0.041,0.004-0.059,0.01l0,0c-0.055,0.004-0.104,0.033-0.136,0.079
						c-0.098,0.143-0.148,0.239-0.166,0.397l0.006,0.21l-0.09,0.696l0.004,0.276c0,0.018,0.002,0.038,0.008,0.055l0.104,0.308
						c0.014,0.043,0.045,0.081,0.084,0.102c0.181,0.102,0.204,0.11,0.257,0.11l0,0c0,0,0.165-0.004,0.187-0.002
						c0.047,0.002,0.092-0.014,0.127-0.045l0.044-0.039c0.025-0.023,0.045-0.051,0.055-0.082l0.111-0.376l0.051-0.263l0.021-0.224
						l0.052-0.269l0.02-0.388c0.002-0.039-0.01-0.079-0.033-0.112C111.374,17.694,111.358,17.665,111.349,17.62z"/>
				</g>
				<path fill="#231815" d="M141.446,17.994c0-0.02-0.002-0.039-0.006-0.057c-0.026-0.11-0.095-0.163-0.179-0.204l-0.276-0.149
					c-0.025-0.014-0.055-0.021-0.085-0.023c0,0-0.057-0.002-0.076-0.006l-0.271-0.067c-0.016-0.004-0.031-0.006-0.047-0.006
					l-0.181-0.002c-0.012,0-0.021,0-0.033,0.002l-0.368,0.061l-0.077,0.004c-0.016,0.002-0.031,0.006-0.045,0.01
					c-0.043,0.014-0.215,0.025-0.265,0.025c-0.051,0-0.313,0.006-0.313,0.006l-0.265-0.01c-0.023,0-0.047,0.004-0.07,0.014
					l-0.163-0.002c-0.037,0-0.07,0.002-0.1,0.008l-0.045-0.235l-0.023-0.726l-0.012-0.1c0.012-0.027,0.018-0.059,0.016-0.088
					l-0.035-0.618c-0.007-0.053-0.007-0.094,0.002-0.129c0.008-0.039,0.002-0.081-0.015-0.12l-0.023-0.047l-0.051-0.674
					c-0.002-0.016-0.006-0.032-0.01-0.047l-0.047-0.145c-0.004-0.014-0.012-0.027-0.018-0.039c-0.041-0.071-0.049-0.231-0.045-0.298
					c0.002-0.008,0.004-0.03,0.008-0.055l0.349-0.021c0.012,0,0.023-0.002,0.035-0.006c0.12-0.029,0.282-0.069,0.475-0.061
					c0.047,0.002,0.384,0.012,0.386,0.012l0.165,0.004c0.016,0.002,0.031-0.002,0.047-0.006l0.553-0.079
					c0.018-0.004,0.037-0.008,0.056-0.016l0.182-0.079c0.053-0.023,0.095-0.066,0.11-0.122l0.02-0.02
					c0.059-0.055,0.078-0.139,0.051-0.213c-0.037-0.096-0.202-0.259-0.272-0.294c-0.014-0.008-0.027-0.014-0.041-0.016l-0.313-0.094
					c-0.02-0.006-0.04-0.008-0.062-0.01c0,0-0.178,0.004-0.211,0.002c-0.013-0.004-0.024-0.006-0.036-0.006l-0.174-0.016
					c-0.018,0-0.035,0-0.053,0.004c0,0-0.185,0.036-0.239,0.043l-0.359-0.002l-0.49,0.063l-0.238,0.063l-0.2,0.029l-0.177-0.004
					c-0.018,0-0.031,0-0.047,0.004l-0.276,0.063l-0.237,0.025l-0.212,0.002l-0.228,0.028c-0.037,0.004-0.148-0.002-0.148-0.002
					c-0.012-0.002-0.025,0-0.037,0.002l-1.367,0.192c-0.041,0.006-0.063,0.02-0.129,0.061c-0.039,0.021-0.07,0.055-0.088,0.096
					c-0.006,0.014-0.01,0.026-0.014,0.038c-0.036,0.031-0.062,0.074-0.067,0.124c-0.008,0.055-0.018,0.105-0.029,0.155
					c-0.02,0.08,0.01,0.163,0.074,0.209c0.04,0.028,0.073,0.059,0.101,0.09c0.035,0.039,0.082,0.063,0.135,0.066l0.385,0.032
					c0.012,0,0.025,0.002,0.039,0l0.159-0.02c0.037,0.004,0.074-0.004,0.109-0.008l0.021-0.004c0.016,0,0.033,0,0.049-0.004
					l0.755-0.119l0.112-0.028l0.217-0.002c0.023,0.047,0.039,0.196,0.008,0.339c-0.006,0.021-0.008,0.045-0.004,0.066l0.014,0.135
					l-0.008,0.149c-0.01,0.057-0.002,0.121,0.021,0.3c0.019,0.122,0.038,0.269,0.042,0.402l0.037,0.263l0.002,0.012
					c0,0.035-0.01,0.133-0.023,0.224c-0.002,0.018-0.002,0.037,0,0.057c0,0,0.057,0.398,0.07,0.537l0.061,0.324l-0.012,0.186
					c-0.002,0.014,0,0.025,0,0.025l0.041,0.347l-0.17,0.01c-0.002,0-0.002,0-0.002,0c-0.149,0-0.265,0.027-0.41,0.064
					c-0.012,0.002-0.023,0.004-0.033,0.004c-0.02-0.002-0.025,0-0.434,0.049l-0.8,0.043c-0.016,0.002-0.031,0.004-0.047,0.008
					c-0.014,0.002-0.039,0.006-0.068,0.01c-0.196,0.025-0.271,0.036-0.329,0.104l-0.03,0.031c-0.018,0.02-0.033,0.045-0.043,0.071
					l-0.082,0.243c-0.004,0.012-0.012,0.047-0.012,0.047c-0.008,0.055-0.002,0.102,0.02,0.141c0.029,0.049,0.096,0.129,0.146,0.184
					l0.088,0.084c0.031,0.029,0.07,0.047,0.113,0.053l0.373,0.016l0.315-0.012l0.276,0.002l0.364-0.047
					c0.058,0.008,0.142,0.012,0.334-0.006c0.014-0.002,0.029-0.004,0.043-0.01l0.084-0.029l1.28-0.185l0.165,0.002l0.717-0.059
					l0.859-0.021l0.948,0.02c0.025,0.004,0.049-0.002,0.07-0.012l0.206-0.075c0.066-0.023,0.118-0.092,0.13-0.163
					c0.004-0.02,0.004-0.039,0.002-0.061L141.446,17.994z"/>
				<path fill="#231815" d="M188.11,16.073c-0.012-0.067-0.053-0.122-0.113-0.151c-0.053-0.024-0.078-0.045-0.125-0.086
					l-0.101-0.084c-0.021-0.016-0.045-0.029-0.072-0.037l-0.3-0.088c-0.016-0.006-0.031-0.008-0.049-0.008l-0.984-0.039
					l-0.578,0.029l-1.882,0.187l-0.196,0.047l-0.381,0.041l-0.193,0.047l-0.581,0.068c-0.002,0-0.141,0.02-0.182,0.02
					c-0.058-0.004-0.108,0.014-0.167,0.03c-0.025,0.008-0.053,0.016-0.064,0.018c-0.043-0.006-0.089-0.012-0.13-0.012
					c-0.137-0.008-0.191,0.098-0.271,0.255c-0.035,0.068-0.094,0.182-0.123,0.215c-0.031,0.035-0.049,0.081-0.049,0.127
					c-0.002,0.12,0.008,0.17,0.049,0.245c0.086,0.165,0.615,0.206,0.627,0.208c0.008,0,0.018,0,0.027,0
					c0.255,0,0.788-0.09,0.839-0.1l0.365-0.043l0.196-0.049l1.209-0.168l0.687-0.043l0.401-0.066c0.06-0.01,0.134-0.014,0.237-0.012
					c0.147,0.006,0.323,0.023,0.512,0.043c0.187,0.018,0.377,0.037,0.541,0.043c0.208,0.006,0.306-0.012,0.361-0.034l0.105-0.023
					c0.179-0.006,0.366-0.1,0.412-0.214c0.014-0.033,0.018-0.07,0.012-0.105L188.11,16.073z"/>
				<path fill="#231815" d="M194.887,18.687l-0.109-0.304l-0.062-0.122l-0.066-0.265c-0.004-0.02-0.012-0.037-0.021-0.053
					l-0.096-0.145l-0.085-0.09c-0.195-0.22-0.341-0.274-0.611-0.337l-0.055-0.026c-0.053-0.029-0.177-0.061-0.461-0.061
					c-0.239,0-0.475,0.023-0.615,0.047c-0.012,0-0.025,0.004-0.035,0.008l-0.306,0.12l-0.261,0.139
					c-0.01,0.008-0.021,0.014-0.03,0.021l-0.302,0.253c-0.014,0.01-0.023,0.022-0.031,0.034l-0.212,0.296
					c-0.014,0.018-0.023,0.039-0.029,0.063l-0.066,0.278l-0.061,0.122c-0.012,0.026-0.02,0.055-0.02,0.083v0.555
					c0,0.031,0.008,0.061,0.023,0.088l0.047,0.083c0.08,0.147,0.449,0.417,0.574,0.482c0.097,0.051,0.196,0.102,0.3,0.137
					c0.023,0.01,0.049,0.012,0.075,0.01l0.812-0.066l0.066,0.1c0.029,0.043,0.076,0.072,0.131,0.078l0.065,0.008
					c0.09,0.012,0.166,0.021,0.261,0.021c0.053,0,0.111-0.02,0.201-0.049c0.026-0.008,0.05-0.018,0.036-0.018h0.002
					c0.047,0,0.092-0.018,0.125-0.049c0.037-0.035,0.175-0.113,0.249-0.157c0.059-0.033,0.105-0.061,0.127-0.074
					c0.052-0.04,0.093-0.09,0.134-0.145c0.045-0.057,0.09-0.118,0.155-0.167c0.039-0.029,0.063-0.072,0.068-0.122
					c0.021-0.174,0.066-0.292,0.1-0.378l0.02-0.051c0.01-0.029,0.012-0.061,0.008-0.092L194.887,18.687z M192.925,19.512
					c-0.101-0.131-0.233-0.29-0.324-0.345c-0.045-0.027-0.092-0.057-0.146-0.082l-0.051-0.086c0.023-0.335,0.082-0.419,0.158-0.494
					c0.051-0.053,0.144-0.178,0.194-0.251l0.274-0.133l0.272,0.018c0.188,0.01,0.192,0.01,0.251,0.081
					c0.012,0.016,0.023,0.027,0.039,0.037l0.061,0.038c0.04,0.039,0.095,0.096,0.112,0.125c0,0,0.004,0.012,0.006,0.018l0.102,0.298
					l-0.012,0.224c-0.012,0.018-0.02,0.035-0.023,0.055c-0.006,0.023-0.008,0.051-0.004,0.077l-0.041,0.07l-0.09,0.057l-0.095,0.037
					c-0.113,0.043-0.197,0.074-0.29,0.165c-0.014,0.012-0.039,0.018-0.107,0.029c-0.047,0.008-0.104,0.018-0.169,0.036
					L192.925,19.512z"/>
				<g>
					<path fill="#231815" d="M147.669,12.829c0.049,0.023,0.112,0.053,0.192,0.116l0.092,0.084c0.016,0.016,0.037,0.029,0.061,0.041
						l0.467,0.339l0.097,0.092c0.031,0.027,0.066,0.049,0.104,0.061l0.09,0.027c0.012,0.004,0.021,0.006,0.035,0.008l0.285,0.049
						c0.014,0.002,0.027,0.002,0.043,0.002c0.033,0,0.064-0.006,0.096-0.018c0.049-0.02,0.098-0.033,0.146-0.047
						c0.125-0.033,0.286-0.125,0.317-0.145c0.07-0.042,0.119-0.116,0.127-0.2l0.008-0.063c0.01-0.094-0.031-0.188-0.111-0.243
						l-0.533-0.375l-0.537-0.317c-0.008-0.006-0.018-0.01-0.029-0.014l-0.28-0.122l-0.067-0.061
						c-0.043-0.047-0.102-0.078-0.164-0.084c-0.104-0.012-0.231-0.004-0.315,0.02l-0.144,0.023c-0.1,0.014-0.183,0.086-0.214,0.182
						l-0.033,0.108c-0.018,0.055-0.016,0.116,0.006,0.17C147.515,12.758,147.623,12.809,147.669,12.829z"/>
					<path fill="#231815" d="M150.195,19.155l-0.008-0.282l0.031-0.692l-0.016-0.665l-0.021-0.125l0.018-0.421l-0.021-0.253
						c-0.004-0.036-0.016-0.071-0.037-0.102c-0.006-0.008-0.013-0.02-0.019-0.033c-0.021-0.045-0.055-0.081-0.098-0.102
						c-0.192-0.098-0.382-0.174-0.58-0.237c0.039-0.043,0.076-0.088,0.113-0.133c0.058-0.071,0.116-0.143,0.202-0.237l0.187-0.241
						l0.088-0.09l0.124-0.084c0.021-0.014,0.039-0.031,0.053-0.051l0.156-0.212c0.237-0.22,0.263-0.253,0.272-0.267
						c0.087-0.114,0.169-0.222,0.276-0.292c0.058-0.037,0.093-0.1,0.097-0.168c0.006-0.102-0.014-0.175-0.031-0.247l-0.016-0.059
						c-0.018-0.074-0.073-0.133-0.146-0.155l-0.353-0.11c-0.02-0.006-0.041-0.01-0.061-0.01l-0.233-0.002
						c-0.027,0.002-0.056,0.004-0.081,0.014l-0.508,0.192l-0.353,0.055l-0.776,0.182l-0.233,0.067l-0.543,0.065l-1.072,0.035
						c-0.08,0.002-0.152,0.047-0.188,0.118l-0.072,0.147c-0.039,0.076-0.029,0.167,0.023,0.233l0.12,0.145
						c0.018,0.023,0.041,0.041,0.064,0.055l0.202,0.11c0.02,0.01,0.039,0.016,0.061,0.021l0.29,0.059
						c0.02,0.004,0.037,0.006,0.057,0.004l0.43-0.026c0.02,0,0.041-0.006,0.061-0.016l0.358-0.006
						c0.015-0.002,0.028-0.002,0.04-0.006l0.656-0.137l0.198-0.006c-0.047,0.094-0.068,0.116-0.106,0.143
						c-0.041,0.031-0.07,0.075-0.115,0.141c-0.014,0.02-0.025,0.037-0.029,0.043c-0.008,0.01-0.018,0.02-0.023,0.031l-0.183,0.28
						l-0.156,0.216l-0.653,0.735l-0.109,0.088c-0.016,0.012-0.027,0.025-0.04,0.041l-0.113,0.161l-0.149,0.147
						c-0.008,0.01-0.016,0.018-0.021,0.026l-0.156,0.211l-0.261,0.229l-0.298,0.229l-0.263,0.257
						c-0.194,0.161-0.296,0.333-0.408,0.688c-0.025,0.082,0.018,0.2,0.086,0.255c0.026,0.064,0.079,0.114,0.146,0.131
						c0.002,0.002,0.243,0.057,0.4,0.023l0.135-0.014c0.029-0.002,0.059-0.012,0.084-0.027l0.379-0.216
						c0.027-0.016,0.051-0.037,0.07-0.063l0.228-0.322c0.008-0.008,0.018-0.016,0.027-0.025l0.122-0.129l0.143-0.196l0.255-0.288
						l0.631-0.625c0.01-0.01,0.02-0.02,0.028-0.032l0.313-0.437l0.154,0.049l0.012,0.549l0.029,0.371l0.004,0.196l-0.031,0.551
						l-0.023,0.631l0.004,0.213c0,0.024,0.006,0.047,0.016,0.069l0.004,0.147c0,0.039,0.012,0.077,0.031,0.11
						c0,0,0.087,0.137,0.112,0.184c0.029,0.073,0.096,0.127,0.179,0.135l0.364,0.04c0.006,0,0.012,0,0.018,0
						c0.045,0,0.088-0.016,0.123-0.042c0.14-0.047,0.177-0.072,0.196-0.086l0.039-0.026c0.05-0.029,0.085-0.076,0.099-0.133
						c0.041-0.17,0.053-0.278,0.043-0.427L150.195,19.155z"/>
					<path fill="#231815" d="M153.435,18.032c-0.078-0.053-0.245-0.222-0.347-0.332l-0.216-0.186l-0.353-0.257
						c-0.013-0.016-0.026-0.032-0.044-0.043l-0.485-0.358l-0.247-0.222l-0.171-0.122c-0.004-0.004-0.01-0.008-0.016-0.01
						l-0.126-0.124c-0.012-0.012-0.025-0.02-0.039-0.027l-0.331-0.198c-0.023-0.014-0.049-0.021-0.076-0.025
						c-0.037-0.006-0.255-0.004-0.354,0.041c-0.027,0.014-0.053,0.032-0.07,0.055l-0.07,0.088c-0.097,0.119-0.196,0.29-0.128,0.429
						c0.021,0.047,0.044,0.092,0.052,0.168c0.008,0.061,0.041,0.116,0.094,0.147l0.533,0.33l0.541,0.388l0.142,0.116l0.184,0.223
						l0.157,0.22l0.16,0.174c0.014,0.014,0.03,0.025,0.046,0.035c0.021,0.014,0.037,0.028,0.057,0.057
						c0.027,0.043,0.07,0.074,0.119,0.086c0.147,0.037,0.276,0.055,0.398,0.055c0.162,0,0.298-0.031,0.477-0.073
						c0.074-0.018,0.131-0.074,0.148-0.145c0.027-0.116,0.039-0.204,0.051-0.304C153.529,18.145,153.496,18.073,153.435,18.032z"/>
				</g>
				<g>
					<path fill="#231815" d="M165.998,16.25l-0.071-0.088c-0.053-0.113-0.154-0.159-0.233-0.19
						c-0.031-0.035-0.074-0.059-0.121-0.065c-0.204-0.021-0.422,0.004-0.559,0.069c-0.021,0.012-0.039,0.023-0.055,0.041
						l-0.177,0.192l-0.276,0.215l-0.239,0.214l-0.183,0.214l-0.215,0.125l-0.943,0.737c-0.037,0.027-0.08,0.067-0.129,0.114
						c-0.056,0.053-0.12,0.114-0.173,0.149l-0.229,0.116l-0.086-0.02l-0.006-0.625l-0.033-0.4l0.004-0.361l-0.024-0.165l0.016-0.367
						l-0.018-0.194l0.034-0.427c0-0.016,0-0.03-0.002-0.045l-0.087-0.51l-0.064-1.317c0-0.027-0.008-0.055-0.02-0.078l-0.153-0.286
						c-0.016-0.032-0.021-0.043-0.053-0.061c-0.008-0.008-0.014-0.018-0.021-0.025c-0.023-0.035-0.055-0.075-0.102-0.102
						c-0.116-0.066-0.222-0.066-0.299-0.066c-0.033,0-0.066,0-0.105-0.004c-0.086-0.012-0.165,0.039-0.194,0.122l-0.158,0.458
						c-0.012,0.031-0.012,0.065-0.006,0.098l0.059,0.269c0.016,0.063,0.006,0.124-0.006,0.194c-0.006,0.038-0.012,0.071-0.016,0.106
						c-0.002,0.031,0,0.063,0.027,0.341c0.012,0.104,0.021,0.204,0.023,0.231v0.427l0.092,1.921l-0.014,0.731l0.05,1.061
						c0.002,0.039,0.016,0.074,0.039,0.106c0.027,0.035,0.057,0.051,0.152,0.102c0.037,0.02,0.077,0.042,0.101,0.055
						c0.023,0.021,0.051,0.035,0.082,0.043c0.064,0.014,0.115,0.02,0.157,0.02c0.055,0,0.096-0.008,0.141-0.02
						c0.031-0.008,0.057-0.016,0.105-0.016c0.185,0,0.35-0.021,0.516-0.074l0.206-0.1l0.19-0.057
						c0.018-0.004,0.033-0.012,0.049-0.021l0.363-0.237c0,0,0.197-0.167,0.421-0.29l0.208-0.133
						c0.111-0.059,0.222-0.151,0.337-0.251c0.095-0.08,0.192-0.165,0.282-0.219c0.218-0.133,0.436-0.274,0.551-0.42l0.482-0.329
						c0.01-0.008,0.018-0.014,0.025-0.023l0.294-0.306c0.021-0.023,0.038-0.051,0.046-0.082l0.061-0.255
						C166.064,16.424,166.064,16.328,165.998,16.25z"/>
					<path fill="#231815" d="M159.622,15.021c0-0.02-0.002-0.042-0.006-0.061c-0.01-0.047-0.025-0.106-0.047-0.165
						c-0.018-0.043-0.025-0.064-0.025-0.125c0-0.047-0.012-0.094-0.035-0.135c-0.078-0.131-0.183-0.3-0.228-0.357
						c-0.018-0.02-0.039-0.045-0.057-0.076c-0.037-0.063-0.098-0.108-0.169-0.125c-0.135-0.031-0.243-0.047-0.333-0.051
						c-0.086,0-0.177,0.04-0.228,0.114c-0.102,0.147-0.113,0.22-0.123,0.386l-0.029,0.124c-0.014,0.055-0.01,0.112,0.012,0.165
						l0.094,0.228c0.004,0.012,0.01,0.023,0.016,0.035l0.082,0.141l0.034,0.185l-0.036,0.584l-0.061,0.484l-0.098,0.398
						c-0.064,0.2-0.116,0.4-0.169,0.602c-0.09,0.347-0.175,0.676-0.317,0.939c-0.008,0.018-0.016,0.033-0.021,0.051l-0.112,0.384
						c-0.023,0.077-0.01,0.159,0.036,0.226l0.143,0.206c0.049,0.073,0.132,0.114,0.218,0.114c0.006,0,0.012,0,0.018,0
						c0.098-0.006,0.237-0.043,0.265-0.049c0.055-0.014,0.104-0.047,0.14-0.092l0.186-0.233c0.014-0.018,0.025-0.037,0.035-0.057
						l0.239-0.545l0.103-0.251l0.066-0.216c0.185-0.435,0.212-0.655,0.249-0.96c0.012-0.094,0.025-0.2,0.045-0.33l0.117-0.843
						c0.007-0.041,0-0.083-0.014-0.12L159.622,15.021z"/>
				</g>
				<g>
					<path fill="#231815" d="M178.491,13.771l-0.072-0.494c-0.004-0.024-0.012-0.047-0.023-0.067
						c-0.018-0.059-0.05-0.257-0.071-0.416l-0.035-0.267l-0.021-0.075c-0.029-0.104-0.037-0.129-0.047-0.221
						c-0.025-0.229-0.041-0.38-0.267-0.571l-0.276-0.168c-0.033-0.021-0.07-0.029-0.114-0.027l-0.17,0.01
						c-0.064,0.004-0.122,0.037-0.155,0.092c-0.074,0.121-0.143,0.243-0.164,0.38c-0.004,0.018-0.004,0.036-0.002,0.053l0.203,1.28
						c0.025,0.113,0.046,0.239,0.048,0.259c0,0-0.002,0.023-0.002,0.035l0.047,0.831c0.002,0.018,0.004,0.037,0.012,0.055
						c0.047,0.129,0.158,0.404,0.18,0.449c0.036,0.072,0.075,0.112,0.157,0.108c0.016,0.006,0.035,0.018,0.055,0.027
						c0.061,0.031,0.128,0.066,0.204,0.066c0.014,0,0.027-0.002,0.041-0.004c0.14-0.023,0.298-0.109,0.353-0.143
						c0.136-0.107,0.153-0.233,0.165-0.335l0.006-0.035c0.002-0.014,0.002-0.026,0.002-0.04L178.491,13.771z"/>
					<path fill="#231815" d="M176.72,12.752c-0.002-0.192-0.139-0.438-0.166-0.486c-0.012-0.018-0.023-0.035-0.042-0.049
						c0,0-0.043-0.037-0.064-0.057c-0.025-0.035-0.063-0.063-0.105-0.074c-0.025-0.014-0.083-0.057-0.124-0.096
						c-0.049-0.043-0.117-0.057-0.178-0.043l-0.284,0.071c-0.021,0.004-0.054,0.021-0.069,0.029
						c-0.043,0.027-0.074,0.069-0.088,0.116l-0.061,0.226l-0.029,0.198c-0.004,0.02-0.004,0.042,0,0.061
						c0.018,0.12,0.086,0.521,0.17,0.667l0.103,0.494c0.076,0.343,0.068,0.788,0.068,0.788c0,0.043,0.014,0.082,0.037,0.113
						l0.033,0.1c0.018,0.055,0.027,0.1,0.035,0.143c0.014,0.067,0.062,0.124,0.126,0.147l0.31,0.114
						c0.021,0.008,0.043,0.012,0.066,0.012c0.01,0,0.018,0,0.027-0.002l0.21-0.027c0.063-0.008,0.118-0.047,0.149-0.106l0.129-0.251
						c0.018-0.037,0.025-0.078,0.02-0.118l-0.218-1.546C176.726,12.997,176.722,12.864,176.72,12.752z"/>
					<path fill="#231815" d="M175.926,15.961c-0.025-0.037-0.061-0.069-0.145-0.137c-0.041-0.033-0.087-0.069-0.091-0.069
						c-0.031-0.055-0.09-0.09-0.152-0.092l-0.21-0.006c-0.033-0.018-0.07-0.024-0.107-0.02l-1.296,0.181l-0.257-1.049l-0.085-0.22
						l-0.047-0.1l-0.002-0.074l0.845-0.159c0.179-0.042,0.494-0.127,0.608-0.241c0.037-0.039,0.057-0.12,0.051-0.175
						c0.002-0.078,0.004-0.227-0.116-0.339c-0.064-0.055-0.18-0.096-0.44-0.176c-0.02-0.006-0.043-0.008-0.063-0.008l-0.669,0.031
						l-0.617,0.1l-0.41-1.037c-0.01-0.023-0.023-0.043-0.041-0.061c-0.045-0.047-0.1-0.078-0.153-0.11
						c-0.041-0.025-0.088-0.053-0.107-0.076c-0.031-0.035-0.074-0.059-0.123-0.063c-0.155-0.014-0.313-0.02-0.43-0.01
						c-0.088,0.006-0.159,0.077-0.167,0.165l-0.047,0.53c-0.014,0.041-0.014,0.086,0.002,0.127c0.031,0.082,0.132,0.209,0.196,0.288
						l0.113,0.227c0.016,0.034,0.053,0.139,0.091,0.245l-0.383,0.11l-0.247,0.09l-0.455,0.078c-0.078,0.026-0.168,0.073-0.256,0.12
						l-0.101,0.051c-0.047,0.023-0.082,0.066-0.094,0.118l-0.089,0.339c-0.004,0.02-0.006,0.037-0.004,0.057
						c0.004,0.076,0.018,0.141,0.048,0.217c0.025,0.065,0.084,0.11,0.154,0.118l0.235,0.02c0.027,0.004,0.057-0.002,0.082-0.012
						l0.138-0.055c0.014-0.006,0.025-0.012,0.037-0.021l1.313-0.314l0.072,0.304l0.093,0.265l0.127,0.469
						c0.012,0.035,0.025,0.069,0.037,0.098c0.023,0.059,0.037,0.094,0.043,0.161c0.008,0.083,0.017,0.161,0.034,0.226l0.002,0.006
						l-2.047,0.423c-0.061,0.012-0.11,0.055-0.134,0.112l-0.162,0.427c-0.021,0.057-0.014,0.122,0.021,0.17
						c0.027,0.04,0.051,0.079,0.07,0.118c0.031,0.059,0.09,0.096,0.157,0.098l0.1,0.002c0.479,0,0.866-0.1,1.276-0.206
						c0.304-0.078,0.617-0.161,0.96-0.192h0.006l0.398,1.239l0.119,0.518l0.307,0.835c0.008,0.021,0.021,0.041,0.037,0.057
						l0.043,0.116c0.02,0.053,0.063,0.092,0.115,0.11c0.014,0.008,0.033,0.021,0.056,0.035c0.078,0.055,0.127,0.086,0.195,0.086
						c0.265,0,0.387-0.055,0.569-0.139c0.057-0.026,0.09-0.069,0.156-0.196c0.014-0.027,0.021-0.059,0.02-0.09l-0.008-0.274
						c-0.002-0.029-0.01-0.057-0.023-0.084l-0.105-0.187l-0.071-0.278l-0.08-0.178l-0.057-0.237l-0.138-0.341l-0.374-1.158
						c0.041-0.01,0.088-0.016,0.145-0.016c0.058,0,0.147-0.022,0.369-0.083c0.1-0.027,0.253-0.069,0.282-0.071
						c0.01-0.002,0.025-0.002,0.037-0.004c0.088-0.018,0.194-0.033,0.235-0.033c0.025,0.008,0.051,0.01,0.078,0.006l0.338-0.043
						c0.029-0.004,0.057-0.016,0.08-0.033l0.133-0.094c0.06-0.043,0.089-0.118,0.073-0.188l-0.02-0.113
						C176,16.097,175.992,16.062,175.926,15.961z"/>
				</g>
				<g>
					<path fill="#00A440" d="M129.948,15.857l-0.36-1.139c-0.008-0.021-0.018-0.041-0.029-0.059l-0.19-0.272l-0.185-0.22
						c0,0-0.135-0.196-0.16-0.231c-0.083-0.112-0.322-0.296-0.488-0.32c-0.058-0.01-0.249,0.006-0.28,0.01
						c-0.085,0.008-0.146,0.053-0.194,0.09c-0.008,0.004-0.014,0.01-0.021,0.014c-0.075,0.021-0.136,0.083-0.155,0.161l-0.078,0.304
						c-0.012,0.055-0.006,0.109,0.02,0.159l0.098,0.19c0.008,0.016,0.016,0.027,0.027,0.039l0.291,0.349l0.263,0.419l0.105,0.304
						l0.014,0.28l-0.037,0.46c-0.002,0.043,0.014,0.102,0.033,0.139c0.023,0.067,0.068,0.187,0.208,0.335
						c0.061,0.064,0.148,0.088,0.231,0.059c0.012,0,0.045,0.01,0.066,0.016c0.045,0.014,0.102,0.032,0.164,0.032h0.002
						c0.198,0,0.408-0.198,0.55-0.363c0.023-0.029,0.041-0.063,0.049-0.1l0.066-0.576C129.958,15.91,129.956,15.883,129.948,15.857z
						"/>
					<path fill="#00A440" d="M125.414,18.053c-0.029-0.153-0.271-0.353-0.387-0.4c-0.109-0.045-0.223-0.092-0.298-0.153
						l-0.176-0.255c0,0-0.19-0.241-0.214-0.274c-0.006-0.01-0.014-0.02-0.023-0.03c-0.031-0.045-0.136-0.217-0.159-0.259
						c0,0,0-0.004-0.002-0.006l-0.239-0.439l-0.259-0.533l-0.113-0.2l-0.081-0.288l-0.096-0.237
						c-0.021-0.053-0.061-0.094-0.111-0.119c-0.033-0.016-0.069-0.036-0.104-0.077c-0.039-0.049-0.096-0.079-0.156-0.083
						l-0.22-0.016c-0.033-0.004-0.064,0.002-0.097,0.014l-0.121,0.049c-0.082,0.02-0.146,0.084-0.165,0.167
						c-0.008,0.041-0.041,0.108-0.061,0.155c-0.027,0.063-0.039,0.09-0.039,0.129l-0.008,0.033c-0.01,0.042-0.02,0.086-0.025,0.131
						c-0.006,0.057-0.002,0.114,0.004,0.157c0,0.018,0,0.033,0.002,0.047c0.006,0.027,0.01,0.053,0.102,0.267
						c0.077,0.155,0.165,0.341,0.192,0.408c0.002,0.012,0.006,0.023,0.012,0.035l0.124,0.335c0.006,0.014,0.014,0.029,0.021,0.041
						l0.146,0.229l0.339,0.602l0.229,0.367c0.192,0.241,0.436,0.477,0.445,0.488c0.018,0.016,0.027,0.023,0.049,0.035
						c0.047,0.029,0.231,0.202,0.375,0.345c0.029,0.029,0.08,0.053,0.121,0.063c0.035,0.008,0.059,0.014,0.09,0.045
						c0.044,0.041,0.099,0.063,0.157,0.063c0.004,0,0.01,0,0.016-0.002c0.169-0.012,0.559-0.043,0.688-0.41l0.061-0.116
						c0.033-0.059,0.035-0.131,0.008-0.194C125.431,18.147,125.423,18.102,125.414,18.053z"/>
				</g>
			</g>
		</g>
	</g>
</g>
</svg>
