<?xml version="1.0" encoding="utf-8"?>
<!-- Generator: Adobe Illustrator 15.1.0, SVG Export Plug-In . SVG Version: 6.00 Build 0)  -->
<!DOCTYPE svg PUBLIC "-//W3C//DTD SVG 1.1//EN" "http://www.w3.org/Graphics/SVG/1.1/DTD/svg11.dtd">
<svg version="1.1" id="レイヤー_1" xmlns="http://www.w3.org/2000/svg" xmlns:xlink="http://www.w3.org/1999/xlink" x="0px"
	 y="0px" width="512px" height="512px" viewBox="0 0 512 512" enable-background="new 0 0 512 512" xml:space="preserve">
<path fill="#00A540" d="M406.6,150.6c12.5-12.5,12.5-32.8,0-45.3s-32.8-12.5-45.3,0L256,210.7L150.6,105.4
	c-12.5-12.5-32.8-12.5-45.3,0s-12.5,32.8,0,45.3L210.7,256L105.4,361.4c-12.5,12.5-12.5,32.8,0,45.3s32.801,12.5,45.301,0L256,301.3
	L361.4,406.6c12.5,12.5,32.8,12.5,45.3,0s12.5-32.8,0-45.3L301.3,256L406.6,150.6z"/>
</svg>
